<svg id="Gap" xmlns="http://www.w3.org/2000/svg" width="32" height="32" viewBox="0 0 32 32">
  <metadata><?xpacket begin="﻿" id="W5M0MpCehiHzreSzNTczkc9d"?>
<x:xmpmeta xmlns:x="adobe:ns:meta/" x:xmptk="Adobe XMP Core 5.6-c142 79.160924, 2017/07/13-01:06:39        ">
   <rdf:RDF xmlns:rdf="http://www.w3.org/1999/02/22-rdf-syntax-ns#">
      <rdf:Description rdf:about=""/>
   </rdf:RDF>
</x:xmpmeta>
                                                                                                    
                                                                                                    
                                                                                                    
                                                                                                    
                                                                                                    
                                                                                                    
                                                                                                    
                                                                                                    
                                                                                                    
                                                                                                    
                                                                                                    
                                                                                                    
                                                                                                    
                                                                                                    
                                                                                                    
                                                                                                    
                                                                                                    
                                                                                                    
                                                                                                    
                                                                                                    
                           
<?xpacket end="w"?></metadata>
<defs>
    <style>
      .cls-1 {
        fill: #ffae00;
      }

      .cls-2, .cls-3, .cls-4 {
        fill: #282828;
      }

      .cls-3, .cls-4 {
        fill-rule: evenodd;
      }

      .cls-3 {
        opacity: 0.5;
      }
    </style>
  </defs>
  <rect id="BG_Shape" data-name="BG Shape" class="cls-1" width="32" height="32" rx="3" ry="3"/>
  <rect class="cls-2" x="16" y="11" width="1" height="11"/>
  <path class="cls-3" d="M6,24V23H27v1H6ZM6,10V9H27v1H6Z"/>
  <path id="Shape_5_copy" data-name="Shape 5 copy" class="cls-3" d="M6,23V22H27v1H6ZM6,11V10H27v1H6Z"/>
  <path class="cls-4" d="M15.646,11.646l0.707,0.707-2,2-0.707-.707Zm1,0.707,0.707-.707,2,2-0.707.707Zm-3,7,0.707-.707,2,2-0.707.707Zm3.707,2-0.707-.707,2-2,0.707,0.707Z"/>
  <path id="Shape_6_copy" data-name="Shape 6 copy" class="cls-4" d="M15.646,11.646l0.707,0.707-2,2-0.707-.707Zm1,0.707,0.707-.707,2,2-0.707.707Zm-3,7,0.707-.707,2,2-0.707.707Zm3.707,2-0.707-.707,2-2,0.707,0.707Z"/>
</svg>
