<svg id="Title" xmlns="http://www.w3.org/2000/svg" width="32" height="32" viewBox="0 0 32 32">
  <metadata><?xpacket begin="﻿" id="W5M0MpCehiHzreSzNTczkc9d"?>
<x:xmpmeta xmlns:x="adobe:ns:meta/" x:xmptk="Adobe XMP Core 5.6-c142 79.160924, 2017/07/13-01:06:39        ">
   <rdf:RDF xmlns:rdf="http://www.w3.org/1999/02/22-rdf-syntax-ns#">
      <rdf:Description rdf:about=""/>
   </rdf:RDF>
</x:xmpmeta>
                                                                                                    
                                                                                                    
                                                                                                    
                                                                                                    
                                                                                                    
                                                                                                    
                                                                                                    
                                                                                                    
                                                                                                    
                                                                                                    
                                                                                                    
                                                                                                    
                                                                                                    
                                                                                                    
                                                                                                    
                                                                                                    
                                                                                                    
                                                                                                    
                                                                                                    
                                                                                                    
                           
<?xpacket end="w"?></metadata>
<defs>
    <style>
      .cls-1 {
        fill: #ffae00;
      }

      .cls-2 {
        fill: #2f2f36;
        fill-rule: evenodd;
      }
    </style>
  </defs>
  <rect id="BG_Shape" data-name="BG Shape" class="cls-1" width="32" height="32" rx="3" ry="3"/>
  <path id="T_copy" data-name="T copy" class="cls-2" d="M10.723,9.758v3.584h0.371a3.745,3.745,0,0,1,1.074-2.256,2.784,2.784,0,0,1,1.943-.566h0.957V20.734a4.022,4.022,0,0,1-.107,1.23,0.933,0.933,0,0,1-.4.469,1.831,1.831,0,0,1-.928.205H13.193V23h6.934V22.639H19.688a1.777,1.777,0,0,1-.894-0.191A1,1,0,0,1,18.355,22a4.17,4.17,0,0,1-.112-1.27V10.52h0.986a3.345,3.345,0,0,1,1.3.176,2.67,2.67,0,0,1,1.045.864,5.661,5.661,0,0,1,.693,1.782h0.352V9.758H10.723Z"/>
</svg>
